<?xml version="1.0" standalone="no"?>
<!DOCTYPE svg PUBLIC "-//W3C//DTD SVG 20010904//EN"
 "http://www.w3.org/TR/2001/REC-SVG-20010904/DTD/svg10.dtd">
<svg version="1.0" xmlns="http://www.w3.org/2000/svg"
 width="810.000000pt" height="487.000000pt" viewBox="0 0 810.000000 487.000000"
 preserveAspectRatio="xMidYMid meet">

<g transform="translate(0.000000,487.000000) scale(0.100000,-0.100000)"
fill="#000000" stroke="none">
<path d="M4135 4320 c-27 -7 -27 -8 -5 -8 14 0 39 4 55 8 27 7 27 8 5 8 -14 0
-38 -4 -55 -8z"/>
<path d="M3894 4247 c6 -36 3 -46 -14 -62 -28 -25 -25 -37 8 -33 20 2 29 -3
37 -19 12 -28 35 -30 42 -3 4 14 14 20 34 20 38 0 47 19 19 40 -23 17 -23 19
-7 43 21 32 14 37 -29 24 -30 -9 -37 -8 -57 11 -34 32 -40 27 -33 -21z m84
-10 c22 5 23 4 14 -13 -8 -14 -7 -23 5 -36 15 -17 14 -18 -5 -18 -12 0 -27
-10 -33 -22 l-12 -22 -8 22 c-5 13 -17 22 -30 22 -19 0 -20 2 -8 16 7 9 12 29
11 46 -2 28 -2 29 20 14 13 -9 31 -13 46 -9z"/>
<path d="M4521 4273 c-6 -12 -20 -16 -45 -15 -40 3 -45 -7 -16 -33 18 -16 18
-19 3 -41 -20 -32 -13 -38 23 -19 27 14 29 13 42 -10 16 -32 32 -32 32 1 0 19
7 28 30 35 17 6 30 14 30 18 0 4 -13 12 -30 18 -23 9 -30 18 -30 37 0 30 -24
35 -39 9z m45 -50 c18 -7 18 -23 0 -23 -8 0 -16 -4 -18 -9 -6 -18 -53 0 -65
25 -10 22 -9 24 12 24 12 0 29 7 36 17 13 15 14 14 17 -6 2 -12 10 -25 18 -28z"/>
<path d="M4141 4269 c-25 -5 -49 -13 -55 -19 -8 -8 -1 -8 19 0 17 6 75 15 130
19 98 8 98 8 25 8 -41 1 -95 -3 -119 -8z"/>
<path d="M4620 4156 c0 -2 7 -7 16 -10 8 -3 12 -2 9 4 -6 10 -25 14 -25 6z"/>
<path d="M4206 4088 c-3 -7 -7 -25 -10 -40 -5 -21 -15 -30 -46 -38 -47 -13
-52 -27 -12 -36 52 -11 54 -13 50 -44 -5 -37 1 -38 32 -5 27 29 37 31 61 9 25
-23 39 -10 29 27 -7 24 -5 33 11 47 28 24 24 32 -21 32 -34 0 -42 4 -55 30
-16 31 -33 39 -39 18z m41 -44 c13 -14 29 -24 36 -21 8 3 12 -9 12 -39 0 -38
-2 -41 -16 -28 -20 18 -28 18 -50 -2 -16 -14 -18 -14 -24 5 -3 12 -15 21 -25
21 -10 0 -22 5 -25 10 -3 6 2 10 12 10 26 0 43 19 43 47 0 30 7 29 37 -3z"/>
<path d="M3920 4055 c13 -14 26 -25 28 -25 3 0 -5 11 -18 25 -13 14 -26 25
-28 25 -3 0 5 -11 18 -25z"/>
<path d="M4619 4043 l-24 -28 28 24 c25 23 32 31 24 31 -2 0 -14 -12 -28 -27z"/>
<path d="M3892 3998 c16 -16 34 -28 41 -28 6 0 3 6 -8 12 -11 6 -29 18 -40 27
-12 9 -8 4 7 -11z"/>
<path d="M4690 3905 c-36 -8 -91 -24 -122 -36 -52 -19 -63 -20 -126 -9 -41 8
-118 11 -190 8 -67 -2 -122 -1 -122 2 0 3 -6 14 -13 25 -13 16 -14 16 -10 -11
l5 -29 -99 -16 c-82 -13 -105 -13 -141 -2 -24 7 -92 20 -152 28 -123 18 -230
10 -326 -26 -80 -30 -98 -79 -43 -121 85 -65 110 -93 153 -178 l46 -89 -34
-63 c-50 -92 -86 -206 -85 -270 1 -29 4 -44 6 -33 4 21 62 42 145 52 45 6 236
-23 254 -38 11 -9 8 -19 -15 -53 -39 -56 -65 -111 -85 -176 -9 -30 -21 -63
-26 -72 -7 -13 -6 -16 4 -12 8 3 18 -7 26 -26 11 -26 10 -40 -7 -98 -11 -37
-24 -66 -29 -64 -5 1 -47 15 -94 32 -88 30 -144 36 -288 32 -49 -1 -81 -6 -80
-12 2 -6 -22 -21 -52 -33 -30 -13 -79 -39 -108 -60 -30 -20 -70 -41 -90 -47
-56 -15 -144 -12 -170 6 -26 18 -28 12 -6 -21 9 -13 13 -29 9 -35 -3 -5 1 -10
10 -10 8 0 40 -20 71 -45 66 -54 128 -86 209 -109 33 -9 74 -22 90 -27 110
-39 121 -41 210 -34 113 8 228 30 279 55 l39 19 31 -24 c42 -32 98 -55 135
-55 16 0 62 -16 103 -35 89 -42 181 -64 206 -49 9 6 27 39 38 74 12 35 30 68
40 73 10 6 65 10 123 11 89 1 120 -4 192 -27 48 -15 96 -27 106 -27 22 0 123
109 123 133 0 17 -42 47 -64 47 -8 0 -23 -13 -33 -30 -9 -17 -21 -30 -25 -30
-11 0 -10 4 8 61 14 42 16 80 11 227 -3 97 -12 220 -21 272 -29 175 -31 156
24 186 29 16 55 40 66 60 27 50 243 192 245 162 0 -7 5 -2 10 12 8 20 12 22
19 10 9 -13 10 -13 10 0 0 26 -56 112 -124 192 -80 93 -81 108 -26 213 46 87
48 104 19 131 -27 25 -166 30 -259 9z m241 -24 l23 -19 -41 -88 c-23 -49 -43
-97 -45 -106 -3 -16 -6 -15 -33 6 -29 23 -29 25 -12 43 19 21 23 38 7 28 -20
-12 -9 12 15 35 14 13 24 29 21 34 -2 6 4 20 13 30 16 18 14 19 -59 13 -41 -3
-106 -16 -145 -29 -55 -19 -76 -22 -98 -14 -36 13 -30 26 19 43 125 45 294 57
335 24z m-1211 -36 c52 -8 108 -18 124 -23 l30 -8 -38 -23 c-36 -23 -38 -23
-95 -7 -64 18 -207 21 -262 6 -20 -6 -44 -19 -54 -30 -18 -20 -18 -21 2 -26
13 -4 20 -11 16 -20 -3 -9 1 -14 11 -14 49 0 141 -74 113 -92 -9 -6 -7 -17 9
-47 20 -37 20 -40 4 -61 -17 -23 -17 -23 -61 60 -41 76 -68 107 -148 168 -17
13 -31 32 -31 42 0 33 68 63 175 79 88 13 101 12 205 -4z m820 -39 c147 -65
203 -95 272 -146 70 -51 190 -183 216 -237 20 -42 12 -51 -96 -111 -50 -28
-102 -66 -127 -94 -24 -27 -48 -48 -54 -48 -6 0 -11 -6 -11 -13 0 -7 -28 -28
-62 -46 -78 -42 -94 -55 -52 -47 40 9 44 -1 51 -124 5 -86 2 -108 -31 -233
-40 -155 -44 -213 -17 -273 22 -49 14 -66 -44 -90 -29 -12 -55 -14 -99 -10
-34 4 -97 2 -140 -4 -69 -9 -80 -8 -91 6 -16 22 -98 11 -126 -17 -10 -10 -24
-19 -29 -19 -6 0 -13 -7 -16 -15 -4 -8 -12 -15 -20 -15 -8 0 -14 -4 -14 -10 0
-5 -7 -10 -15 -10 -8 0 -15 -4 -15 -10 0 -13 -33 -13 -47 1 -7 7 -1 37 23 101
19 50 34 96 34 102 1 33 17 38 56 18 51 -26 176 -46 256 -40 73 5 170 45 188
77 6 12 15 74 21 139 6 64 17 140 25 169 8 28 14 72 14 97 0 38 -4 48 -25 62
-27 18 -82 16 -157 -6 -37 -11 -54 -40 -23 -40 8 0 14 5 12 12 -2 13 63 36
108 37 73 2 89 -42 60 -162 -8 -34 -19 -111 -24 -170 -6 -70 -15 -117 -26
-133 -23 -35 -98 -65 -175 -71 -79 -6 -218 18 -264 46 l-33 21 -7 107 c-3 60
-13 130 -21 157 -8 27 -15 61 -15 74 0 38 37 108 68 128 33 22 95 22 146 0 32
-13 36 -18 26 -31 -7 -8 -8 -15 -2 -15 19 0 33 27 20 37 -27 21 -118 45 -148
38 -65 -14 -129 -99 -130 -171 0 -17 7 -51 16 -75 15 -42 26 -270 14 -282 -3
-3 -24 -3 -48 0 -39 5 -44 9 -75 67 -18 33 -55 99 -82 145 -45 77 -50 91 -50
145 0 49 6 73 33 124 18 35 44 79 59 97 23 29 29 32 54 23 16 -5 36 -8 46 -5
27 6 -89 56 -172 74 -78 17 -206 21 -277 9 -57 -10 -58 -6 -27 86 38 113 97
212 212 359 119 150 163 189 238 209 83 23 203 39 216 29 7 -7 14 -6 18 1 4 6
13 9 21 6 7 -3 16 0 20 6 4 7 50 9 133 6 120 -4 130 -6 211 -42z m169 -1153
c1 -113 1 -113 -23 -113 -43 0 -48 43 -18 161 31 124 40 113 41 -48z m-883
-69 c54 -90 84 -169 84 -222 l0 -24 -18 23 c-18 21 -21 22 -66 9 -42 -11 -48
-11 -66 5 -11 10 -26 36 -35 59 -15 39 -15 48 0 112 17 77 35 134 40 134 2 0
30 -43 61 -96z m-298 55 c59 -15 70 -24 43 -38 -28 -15 -27 -29 5 -43 21 -10
25 -17 20 -40 -4 -20 -2 -28 9 -28 21 0 28 -19 15 -35 -10 -12 -9 -15 4 -15
20 0 21 -24 1 -40 -18 -15 -3 -40 22 -40 9 0 13 -6 10 -14 -4 -10 2 -16 21
-18 23 -3 19 -6 -31 -26 -31 -12 -81 -25 -111 -28 -48 -6 -54 -5 -59 15 -3 11
-1 21 3 21 5 0 7 18 5 40 -3 31 2 50 21 77 31 46 30 54 -6 47 -19 -4 -30 -2
-30 5 0 6 7 11 16 11 8 0 12 5 9 10 -3 6 -14 10 -24 10 -26 0 -54 43 -38 59 8
8 8 11 -1 11 -6 0 -9 6 -6 14 3 9 -3 17 -15 21 -12 3 -21 13 -21 21 0 18 70
19 138 3z m-296 -57 c-18 -14 -20 -20 -10 -30 11 -11 9 -17 -9 -32 -20 -15
-21 -21 -10 -44 7 -14 24 -30 40 -35 29 -11 35 -26 15 -34 -8 -4 -5 -8 9 -12
13 -4 20 -12 16 -21 -3 -8 1 -14 10 -14 26 0 30 -20 6 -28 -15 -6 -19 -11 -11
-16 7 -4 10 -12 6 -17 -3 -6 2 -17 12 -24 29 -22 -2 -19 -55 5 -24 11 -61 23
-82 26 -36 6 -56 24 -26 24 6 0 -1 11 -18 24 -24 19 -27 26 -18 38 10 11 8 18
-9 32 -21 18 -21 19 -2 33 10 8 18 20 16 28 -1 7 2 17 8 20 7 5 5 11 -6 19
-25 19 -10 34 60 66 40 19 64 25 71 19 7 -7 2 -16 -13 -27z m1418 -102 c0 -26
-3 -31 -10 -20 -5 8 -10 31 -10 50 0 26 3 31 10 20 5 -8 10 -31 10 -50z"/>
<path d="M4014 3692 c-28 -10 -72 -36 -99 -57 -73 -60 -174 -182 -206 -250
-28 -57 -25 -81 5 -56 11 9 15 9 18 0 2 -7 21 1 50 21 66 46 115 53 216 29 95
-23 141 -18 188 18 38 29 47 29 59 1 9 -20 16 -23 64 -20 59 3 81 -9 81 -43 0
-54 -89 -79 -199 -55 -50 10 -62 10 -89 -4 -18 -9 -32 -21 -32 -26 0 -6 11 -3
25 6 30 20 31 14 5 -55 -26 -68 -20 -105 22 -127 36 -19 77 -13 119 17 25 18
29 27 29 68 0 37 6 54 25 75 13 14 30 26 38 26 8 0 27 10 43 23 23 18 38 21
81 19 34 -3 53 0 53 7 0 7 -9 9 -24 5 -33 -8 -63 3 -69 25 -7 29 11 51 43 51
16 0 41 11 57 24 28 24 28 24 63 5 51 -27 86 -23 159 17 54 30 72 35 103 30
25 -4 38 -2 38 5 0 6 7 9 15 5 34 -13 11 25 -42 68 -75 62 -274 156 -331 156
-8 0 -49 -16 -92 -35 -43 -19 -88 -35 -100 -35 -12 0 -59 16 -103 35 -103 45
-147 51 -213 27z m534 -73 c39 -13 66 -53 58 -85 -7 -27 -52 -54 -91 -54 -64
0 -131 54 -105 85 14 17 83 -2 76 -21 -3 -8 3 -10 17 -6 33 8 64 55 35 51 -44
-5 -118 2 -113 12 17 27 74 35 123 18z m-355 -20 c28 -16 56 -50 57 -71 1 -48
-137 -102 -202 -79 -33 12 -68 38 -68 52 0 5 12 15 28 24 l27 15 -27 -6 c-16
-3 -28 -2 -28 3 0 14 41 50 70 62 35 14 117 13 143 0z m327 -29 c0 -5 -6 -10
-14 -10 -8 0 -18 5 -21 10 -3 6 3 10 14 10 12 0 21 -4 21 -10z m-75 -109 c13
-22 -98 -49 -125 -31 -13 9 -12 12 4 25 22 17 111 21 121 6z"/>
<path d="M4124 3555 c4 -10 -2 -19 -17 -25 -12 -5 -18 -9 -13 -9 4 -1 0 -13
-9 -28 l-18 -28 25 23 c13 12 29 22 36 22 6 0 9 6 6 13 -6 17 13 34 46 40 16
3 9 5 -19 6 -35 1 -42 -2 -37 -14z"/>
<path d="M4040 3540 c0 -5 9 -10 20 -10 11 0 20 5 20 10 0 6 -9 10 -20 10 -11
0 -20 -4 -20 -10z"/>
<path d="M4472 3146 c-8 -19 -26 -29 -69 -41 -32 -9 -62 -18 -68 -20 -17 -6
48 -5 102 1 48 6 51 9 56 38 6 40 -6 54 -21 22z"/>
<path d="M3728 1479 c-58 -93 -88 -151 -88 -170 l0 -29 90 0 90 0 0 -45 0 -45
40 0 40 0 0 45 c0 38 3 45 20 45 16 0 20 7 20 35 0 28 -4 35 -20 35 -19 0 -20
7 -20 135 l0 135 -42 0 -43 0 -87 -141z m92 -54 l0 -75 -50 0 c-27 0 -50 2
-50 5 0 8 90 145 95 145 3 0 5 -34 5 -75z"/>
<path d="M4071 1602 c-57 -29 -76 -79 -76 -202 0 -87 4 -112 21 -145 51 -98
187 -98 238 0 17 33 21 58 21 145 0 87 -4 112 -21 145 -23 44 -71 75 -119 75
-16 0 -45 -8 -64 -18z m115 -87 c19 -46 19 -185 -1 -231 -13 -33 -17 -35 -52
-32 -33 3 -39 7 -50 38 -17 50 -16 183 1 225 13 31 19 35 51 35 32 0 38 -4 51
-35z"/>
<path d="M4418 1479 c-58 -93 -88 -151 -88 -170 l0 -29 90 0 90 0 0 -45 0 -45
40 0 40 0 0 45 c0 38 3 45 20 45 16 0 20 7 20 35 0 28 -4 35 -20 35 -19 0 -20
7 -20 135 l0 135 -42 0 -43 0 -87 -141z m92 -54 l0 -75 -50 0 c-27 0 -50 2
-50 5 0 8 90 145 95 145 3 0 5 -34 5 -75z"/>
<path d="M4328 821 c-15 -20 -12 -131 3 -131 5 0 9 23 9 50 0 33 4 50 13 50 8
0 7 4 -3 10 -13 9 -12 12 4 25 17 13 17 15 3 15 -9 0 -22 -8 -29 -19z"/>
<path d="M4780 816 c0 -19 -4 -23 -19 -19 -37 9 -65 -49 -42 -86 5 -8 25 -16
45 -17 l36 -3 0 74 c0 43 -4 75 -10 75 -5 0 -10 -11 -10 -24z m-2 -66 c4 -34
-11 -52 -35 -43 -17 7 -17 70 0 76 22 10 32 1 35 -33z"/>
<path d="M3470 760 c0 -40 4 -70 10 -70 6 0 10 13 10 29 0 27 3 30 38 33 30 2
38 7 40 26 5 34 -15 52 -59 52 l-39 0 0 -70z m75 46 c27 -19 13 -46 -25 -46
-27 0 -30 3 -30 30 0 34 22 40 55 16z"/>
<path d="M4211 818 c-1 -10 -6 -18 -12 -18 -8 0 -8 -4 -1 -13 6 -7 12 -30 14
-51 2 -24 9 -41 18 -44 12 -4 13 -2 3 9 -7 7 -13 30 -13 51 0 24 5 38 13 38 8
0 9 3 1 8 -6 4 -14 14 -17 22 -4 12 -6 11 -6 -2z"/>
<path d="M3613 793 c-7 -2 -13 -9 -13 -15 0 -6 6 -6 15 2 15 13 45 7 45 -8 0
-5 -13 -12 -29 -15 -55 -11 -47 -68 10 -64 28 2 29 4 29 48 0 53 -17 69 -57
52z m47 -57 c0 -7 -7 -19 -15 -26 -19 -16 -41 1 -32 24 8 20 47 21 47 2z"/>
<path d="M3715 784 c-33 -33 -4 -101 37 -91 14 4 18 1 16 -11 -3 -12 -13 -16
-33 -15 -22 2 -26 0 -15 -7 43 -27 70 4 70 79 0 57 0 58 -30 59 -16 0 -37 -6
-45 -14z m53 -34 c4 -34 -11 -52 -35 -43 -17 7 -17 70 0 76 22 10 32 1 35 -33z"/>
<path d="M3832 788 c-7 -7 -12 -26 -12 -43 0 -17 5 -36 12 -43 15 -15 45 -15
54 0 5 8 2 9 -11 5 -20 -8 -45 8 -45 29 0 9 12 14 35 14 22 0 35 5 35 13 0 18
-21 37 -40 37 -9 0 -21 -5 -28 -12z m48 -13 c11 -13 8 -15 -19 -15 -31 0 -42
14 -18 23 20 9 24 8 37 -8z"/>
<path d="M3970 744 c0 -30 5 -54 10 -54 6 0 10 20 10 45 0 25 5 46 10 47 32 4
35 0 41 -47 l6 -50 -1 55 -1 55 -37 1 -38 1 0 -53z"/>
<path d="M4096 784 c-30 -30 -10 -94 29 -94 21 0 45 29 45 55 0 26 -24 55 -45
55 -7 0 -21 -7 -29 -16z m54 -8 c16 -20 9 -56 -13 -70 -15 -9 -21 -7 -33 8
-18 25 -18 41 2 60 19 20 28 20 44 2z"/>
<path d="M4396 784 c-30 -30 -10 -94 29 -94 21 0 45 29 45 55 0 26 -24 55 -45
55 -7 0 -21 -7 -29 -16z m54 -8 c16 -20 9 -56 -13 -70 -15 -9 -21 -7 -33 8
-18 25 -18 41 2 60 19 20 28 20 44 2z"/>
<path d="M4504 750 c1 -55 1 -55 34 -56 l32 -1 -2 56 -2 56 -3 -47 c-2 -27 -8
-49 -14 -49 -31 -5 -34 -1 -40 46 l-6 50 1 -55z"/>
<path d="M4612 740 l2 -55 3 48 c2 26 8 48 14 49 31 4 34 0 40 -47 l6 -50 -1
55 -1 55 -32 0 -33 1 2 -56z"/>
</g>
</svg>
